<svg id="Layer_1" data-name="Layer 1" xmlns="http://www.w3.org/2000/svg" viewBox="0 0 88.95 89.02"><title>bbbbb</title><path d="M9.56,2.67v-2h-16v-32h-1v-2h-6v41h1v2h23v-6h-1Zm-1,3h-21v-38h4v35h17Z" transform="translate(20.48 33.35)"/><polygon points="30.04 47.02 29.04 47.02 7.04 47.02 7.04 48.01 29.04 48.01 29.04 52 12.04 52 12.04 55.01 12.04 76.01 2.02 76.01 1.01 76.01 1.01 73.04 8.02 73.04 8.02 70.98 8.02 48.03 7.03 48.03 7.03 70.98 1.01 70.98 0 70.98 0 76.01 0 79.02 2.02 79.02 2.02 80.02 12.04 80.02 14.02 80.02 14.02 55.01 29.04 55.01 30.04 55.01 31.03 55.01 31.03 48.03 30.04 48.03 30.04 47.02"/><path d="M-.43-3.39H10.44V-9.34H9.5v-3h-3v-19h-1v-1h-2v-1h-5v29h1Zm0-28.94h4v22h5v4h-9Z" transform="translate(20.48 33.35)"/><path d="M9.56,26.65v-1h-11v29h1v.89h7V33.63h4v-6h-1Zm-1,5h-5V52.72h-4V26.65h9Z" transform="translate(20.48 33.35)"/><path d="M35.5-19.42H33.56v-1h-21v1h0V42.67h24v-61.1H35.5Zm-3,60.06H13.56V-19.42H32.5V40.64Z" transform="translate(20.48 33.35)"/><rect x="58.02" y="21.01" width="5" height="1.99"/><polygon points="70.04 27.03 70.04 1.98 69.05 1.98 69.05 0.01 68.06 0.01 68.06 0 63 0 63 0.99 68.06 0.99 68.06 1.98 68.06 27.03 58.02 27.03 58.02 30 70.04 30 70.04 27.03"/><polygon points="76.02 34.02 76.04 34.02 76.04 9.94 74.06 9.94 74.06 34.02 58.02 34.02 58.02 36.04 76.02 36.04 76.02 34.02"/><polygon points="88.04 11.99 88.04 10 85.96 10 85.96 11.99 85.96 14.98 82.98 14.98 80.01 14.98 80.01 39.02 58.02 39.02 58.02 42.94 80.01 42.94 82.98 42.94 82.98 17.98 88.94 17.98 88.94 14.98 88.95 14.98 88.95 11.99 88.04 11.99"/><polygon points="81.09 47.02 58.02 47.02 58.02 48.03 80.01 48.03 80.01 86.05 76.03 86.05 76.03 52.02 74.05 52.02 58.02 52.02 58.02 54.99 74.05 54.99 74.05 88.02 76.03 88.02 76.03 89.02 80.01 89.02 82.98 89.02 82.98 48.03 81.09 48.03 81.09 47.02"/><rect x="58.02" y="65.02" width="4.99" height="2"/><polygon points="69.01 60.02 69.01 59.02 58.02 59.02 58.02 60.02 68.01 60.02 68.01 86.05 63.04 86.05 63.04 89.02 68.01 89.02 69.01 89.02 70.01 89.02 70.01 61.02 69.01 61.02 69.01 60.02"/></svg>